# Blender v2.77 (sub 0) OBJ File: ''
# www.blender.org
g Cylinder
v -0.000001 0.000000 -0.000000
v -0.000001 -1.000000 -8.000000
v -0.000001 0.000000 -7.699644
v 3.061467 -1.000000 -7.391036
v 2.946525 0.000000 -7.113543
v 5.656853 -1.000000 -5.656854
v 5.444469 0.000000 -5.444470
v 7.391035 -1.000000 -3.061468
v 7.113542 0.000000 -2.946526
v 7.999999 -1.000000 0.000000
v 7.699643 0.000000 0.000000
v 7.391035 -1.000000 3.061468
v 7.113542 0.000000 2.946527
v 5.656853 -1.000000 5.656854
v 5.444469 0.000000 5.444470
v 3.061467 -1.000000 7.391036
v 2.946526 0.000000 7.113543
v 0.000000 -1.000000 8.000000
v 0.000000 0.000000 7.699644
v -3.061467 -1.000000 7.391037
v -2.946525 0.000000 7.113544
v -5.656854 -1.000000 5.656856
v -5.444469 0.000000 5.444472
v -7.391037 -1.000000 3.061468
v -7.113544 0.000000 2.946527
v -8.000001 -1.000000 -0.000000
v -7.699645 0.000000 -0.000000
v -7.391037 -1.000000 -3.061469
v -7.113544 0.000000 -2.946528
v -5.656853 -1.000000 -5.656856
v -5.444469 0.000000 -5.444472
v -3.061465 -1.000000 -7.391038
v -2.946523 0.000000 -7.113545
vt 0.5000 0.5000
vt 0.6842 0.9446
vt 0.5000 0.9812
vt 0.5000 1.0000
vt 0.6913 0.9619
vt 0.8403 0.8403
vt 0.8536 0.8536
vt 0.9446 0.6842
vt 0.9619 0.6913
vt 0.9812 0.5000
vt 1.0000 0.5000
vt 0.9446 0.3158
vt 0.9619 0.3087
vt 0.8403 0.1597
vt 0.8536 0.1464
vt 0.6842 0.0554
vt 0.6913 0.0381
vt 0.5000 0.0188
vt 0.5000 0.0000
vt 0.3158 0.0554
vt 0.3087 0.0381
vt 0.1597 0.1597
vt 0.1464 0.1464
vt 0.0554 0.3158
vt 0.0381 0.3087
vt 0.0188 0.5000
vt 0.0000 0.5000
vt 0.0554 0.6842
vt 0.0381 0.6913
vt 0.1597 0.8403
vt 0.1464 0.8536
vt 0.3158 0.9446
vt 0.3087 0.9619
vn 0.0000 1.0000 0.0000
vn 0.2452 0.7678 -0.5919
vn 0.0000 0.7678 -0.6407
vn 0.0000 0.2876 -0.9577
vn 0.3665 0.2876 -0.8848
vn 0.4530 0.7678 -0.4530
vn 0.6772 0.2876 -0.6772
vn 0.5919 0.7678 -0.2452
vn 0.8848 0.2876 -0.3665
vn 0.6407 0.7678 0.0000
vn 0.9577 0.2876 0.0000
vn 0.5919 0.7678 0.2452
vn 0.8848 0.2876 0.3665
vn 0.4530 0.7678 0.4530
vn 0.6772 0.2876 0.6772
vn 0.2452 0.7678 0.5919
vn 0.3665 0.2876 0.8848
vn 0.0000 0.7678 0.6407
vn 0.0000 0.2876 0.9577
vn -0.2452 0.7678 0.5919
vn -0.3665 0.2876 0.8848
vn -0.4530 0.7678 0.4530
vn -0.6772 0.2876 0.6772
vn -0.5919 0.7678 0.2452
vn -0.8848 0.2876 0.3665
vn -0.6407 0.7678 0.0000
vn -0.9577 0.2876 0.0000
vn -0.5919 0.7678 -0.2452
vn -0.8848 0.2876 -0.3665
vn -0.4530 0.7678 -0.4530
vn -0.6772 0.2876 -0.6772
vn -0.2452 0.7678 -0.5919
vn -0.3665 0.2876 -0.8848
s 1
f 1/1/1 5/2/2 3/3/3
f 2/4/4 3/3/3 5/2/2 4/5/5
f 1/1/1 7/6/6 5/2/2
f 4/5/5 5/2/2 7/6/6 6/7/7
f 1/1/1 9/8/8 7/6/6
f 6/7/7 7/6/6 9/8/8 8/9/9
f 1/1/1 11/10/10 9/8/8
f 8/9/9 9/8/8 11/10/10 10/11/11
f 1/1/1 13/12/12 11/10/10
f 10/11/11 11/10/10 13/12/12 12/13/13
f 1/1/1 15/14/14 13/12/12
f 12/13/13 13/12/12 15/14/14 14/15/15
f 1/1/1 17/16/16 15/14/14
f 14/15/15 15/14/14 17/16/16 16/17/17
f 1/1/1 19/18/18 17/16/16
f 16/17/17 17/16/16 19/18/18 18/19/19
f 1/1/1 21/20/20 19/18/18
f 18/19/19 19/18/18 21/20/20 20/21/21
f 1/1/1 23/22/22 21/20/20
f 20/21/21 21/20/20 23/22/22 22/23/23
f 1/1/1 25/24/24 23/22/22
f 22/23/23 23/22/22 25/24/24 24/25/25
f 1/1/1 27/26/26 25/24/24
f 24/25/25 25/24/24 27/26/26 26/27/27
f 1/1/1 29/28/28 27/26/26
f 26/27/27 27/26/26 29/28/28 28/29/29
f 1/1/1 31/30/30 29/28/28
f 28/29/29 29/28/28 31/30/30 30/31/31
f 1/1/1 33/32/32 31/30/30
f 30/31/31 31/30/30 33/32/32 32/33/33
f 1/1/1 3/3/3 33/32/32
f 32/33/33 33/32/32 3/3/3 2/4/4
